# xmcd CD database file
#
# Track frame offsets:
#	150
#	8337
#	19179
#	23222
#	43281
#	45537
#	50940
#	62760
#	65720
#	72013
#	83052
#	89177
#	101216
#	109470
#	124672
#	149184
#
# Disc length: 2602 seconds
#
# Revision: 2
# Processed by: cddbd v1.5.2PL0 Copyright (c) Steve Scherf et al.
# Submitted via: CDex 1.51
#
DISCID=f20a2810
DTITLE=Modeste Moussorgski - Tableaux d'une Exposition - Version pour orchestre de Ravel, 1922
DYEAR=1900
DGENRE=Classique
TTITLE0=Tableaux, promenade  { David Josefowitz, Orchestre national de Monté-Carlo }
TTITLE1=Gnomus
TTITLE2=Promenade
TTITLE3=Il vecchio castello
TTITLE4=Promenade
TTITLE5=Tuillerie
TTITLE6=Bydlo
TTITLE7=Promenade
TTITLE8=Ballet de poussins dans leur coque
TTITLE9=Samuel Goldenberg et Schuyle
TTITLE10=Marché de Limoges
TTITLE11=Catacombes
TTITLE12=Cum mortis in langua mortua
TTITLE13=Cabane sur des pattes de poules
TTITLE14=La grande porte de Kiev
TTITLE15=Une nuit sur le mont Chauve   { dir. Pierre Monteux }
EXTD=
EXTT0=
EXTT1=
EXTT2=
EXTT3=
EXTT4=
EXTT5=
EXTT6=
EXTT7=
EXTT8=
EXTT9=
EXTT10=
EXTT11=
EXTT12=
EXTT13=
EXTT14=
EXTT15=
PLAYORDER=
